<svg id="Layer_1" data-name="Layer 1" xmlns="http://www.w3.org/2000/svg" viewBox="0 0 20.23 20.23"><defs><style>.cls-1{fill:#ff5c6e;}</style></defs><title>Artboard 2</title><path class="cls-1" d="M9.18,12.85c0-.41,0-.74.05-1a2.48,2.48,0,0,1,.18-.7,2,2,0,0,1,.39-.59,8.63,8.63,0,0,1,.68-.68l.59-.61a6.87,6.87,0,0,0,.55-.66A3.7,3.7,0,0,0,12,7.88a2.05,2.05,0,0,0,.16-.81,1.82,1.82,0,0,0-.53-1.41,2.18,2.18,0,0,0-1.53-.49,2.93,2.93,0,0,0-.78.1,2.15,2.15,0,0,0-.67.3,1.71,1.71,0,0,0-.47.53A1.53,1.53,0,0,0,8,6.86H6.46a2.94,2.94,0,0,1,.3-1.28,2.8,2.8,0,0,1,.78-1A3.33,3.33,0,0,1,8.69,4a4.78,4.78,0,0,1,1.44-.2A5.15,5.15,0,0,1,11.66,4a3.3,3.3,0,0,1,1.14.63,2.77,2.77,0,0,1,.71,1A3.44,3.44,0,0,1,13.76,7a3.13,3.13,0,0,1-.21,1.15,5,5,0,0,1-.54,1,6.42,6.42,0,0,1-.75.89c-.27.28-.54.54-.81.77a2.54,2.54,0,0,0-.39.47,2.27,2.27,0,0,0-.21.45,2.51,2.51,0,0,0-.08.49,5.34,5.34,0,0,0,0,.59ZM9,15.5a1,1,0,0,1,.24-.68.94.94,0,0,1,.73-.27.94.94,0,0,1,.73.27,1,1,0,0,1,.25.68.92.92,0,0,1-.25.66,1,1,0,0,1-.73.26,1,1,0,0,1-.73-.26A1,1,0,0,1,9,15.5Z"/><path class="cls-1" d="M10.11,20.23A10.12,10.12,0,1,1,20.23,10.11,10.13,10.13,0,0,1,10.11,20.23Zm0-18.76a8.64,8.64,0,1,0,8.64,8.64A8.66,8.66,0,0,0,10.11,1.47Z"/></svg>