<?xml version="1.0" encoding="utf-8"?>
<!-- Generator: Adobe Illustrator 19.2.0, SVG Export Plug-In . SVG Version: 6.00 Build 0)  -->
<svg version="1.1" id="Layer_1" xmlns="http://www.w3.org/2000/svg" xmlns:xlink="http://www.w3.org/1999/xlink" x="0px" y="0px"
	 viewBox="0 0 96.5 96.5" style="enable-background:new 0 0 96.5 96.5;" xml:space="preserve">
<style type="text/css">
	.st0{fill:#FFFFFF;}
	.st1{fill:#525252;}
</style>
<title>accomMarker</title>
<g>
	<polygon class="st0" points="81.1,66.8 81.2,66.9 81.2,43.9 74.9,43.9 74.9,50.6 21.6,50.6 21.6,29.6 15.3,29.6 15.3,66.9 
		21.6,66.9 21.6,62.3 74.9,62.3 74.9,66.8 	"/>
	<path class="st0" d="M30.7,33.8c-3.6,0-6.6,3-6.6,6.6c0,3.6,3,6.6,6.6,6.6s6.6-3,6.6-6.6S34.4,33.8,30.7,33.8L30.7,33.8
		C30.8,33.8,30.8,33.8,30.7,33.8z"/>
	<path class="st0" d="M71.3,46.7v-5.4c0-4-3.3-7.3-7.3-7.3H46.6c0,0,0,0,0,0c-4.1,0-7.4,3.3-7.4,7.4h0v5.4H71.3z"/>
</g>
<path class="st1" d="M48.2,0C21.6,0,0,21.6,0,48.2s21.6,48.2,48.2,48.3s48.2-21.6,48.2-48.2c0,0,0,0,0,0C96.5,21.6,74.9,0,48.2,0z
	 M39.2,41.4c0-4.1,3.3-7.4,7.4-7.4c0,0,0,0,0,0h17.3c4,0,7.3,3.3,7.3,7.3v5.4h-32L39.2,41.4L39.2,41.4z M30.7,33.8
	c3.6,0,6.6,3,6.6,6.6c0,3.6-3,6.6-6.6,6.6s-6.6-3-6.6-6.6l0,0C24.1,36.8,27.1,33.8,30.7,33.8C30.8,33.8,30.8,33.8,30.7,33.8
	L30.7,33.8z M81.1,66.8h-6.2v-4.5H21.6v4.6h-6.3V29.6h6.3v20.9h53.3v-6.7h6.3L81.1,66.8L81.1,66.8z"/>
</svg>
