<?xml version="1.0" encoding="utf-8"?>
<!-- Generator: Adobe Illustrator 19.2.0, SVG Export Plug-In . SVG Version: 6.00 Build 0)  -->
<svg version="1.1" id="Layer_1" xmlns="http://www.w3.org/2000/svg" xmlns:xlink="http://www.w3.org/1999/xlink" x="0px" y="0px"
	 viewBox="0 0 96.5 96.5" style="enable-background:new 0 0 96.5 96.5;" xml:space="preserve">
<style type="text/css">
	.st0{fill:#FFFFFF;}
	.st1{fill:#525252;}
</style>
<title>activityMarker</title>
<g>
	<path class="st0" d="M67.6,22L67.6,22c-1.2-0.2-2.2,0.4-2.5,1.5l-2,7.6l-9.8-0.6H39.9c-0.6-0.1-1.1,0.2-1.5,0.6l-7.6,8.2
		c-0.3,0.4-0.5,0.9-0.6,1.4l-0.8,9.9c-0.1,1.1,0.8,2.1,1.9,2.2c1.1,0.1,2.1-0.8,2.2-1.9l0.7-9.3l5.7-6.1v19.7l-4.2,11h-9.5
		c-1.4,0.1-2.6,1.2-2.7,2.7c-0.1,1.6,1.1,3,2.7,3.1h11.5c0.3,0,0.5,0,0.7-0.1h0.1l0.2-0.1l0.2-0.1c0.7-0.3,1.3-0.9,1.6-1.6l4.7-12.2
		h4.2l11.8,9.5l0.6,10.3c0,0.2,0,0.3,0,0.4c0.2,1.5,1.6,2.7,3.2,2.5c1.5-0.2,2.7-1.6,2.5-3.2l-0.7-11.5c-0.1-0.3-0.1-0.6-0.2-0.8V65
		c-0.2-0.5-0.5-1-0.9-1.3L54.9,55V34.6l9.7,0.6c1,0,2-0.7,2.1-1.8l2.4-9v0C69.4,23.3,68.7,22.2,67.6,22z"/>
	<path class="st0" d="M53.8,22.3c0-3.5-2.8-6.3-6.3-6.3c-3.5,0.1-6.3,2.9-6.3,6.3c0,3.5,2.8,6.3,6.3,6.3S53.8,25.8,53.8,22.3z"/>
</g>
<path class="st1" d="M48.2,0C21.6,0,0,21.6,0,48.2s21.6,48.2,48.2,48.3s48.2-21.6,48.2-48.2l0,0C96.5,21.6,74.9,0,48.2,0z M47.5,16
	c3.5,0,6.3,2.8,6.3,6.3s-2.8,6.3-6.3,6.3s-6.3-2.8-6.3-6.3l0,0C41.2,18.9,44,16.1,47.5,16z M69.1,24.4l-2.4,9
	c-0.1,1.1-1.1,1.8-2.1,1.8l-9.7-0.6V55l10.8,8.7c0.4,0.3,0.7,0.8,0.9,1.3l0,0v0.1c0.1,0.2,0.1,0.5,0.2,0.8l0.7,11.5
	c0.2,1.6-1,3-2.5,3.2c-1.6,0.2-3-1-3.2-2.5c0-0.1,0-0.2,0-0.4l-0.6-10.3l-11.8-9.5h-4.2l-4.7,12.2c-0.3,0.7-0.9,1.3-1.6,1.6l0,0
	l-0.2,0.1l-0.2,0.1h-0.1C38.2,72,38,72,37.7,72H26.2c-1.6-0.1-2.8-1.5-2.7-3.1c0.1-1.5,1.3-2.6,2.7-2.7h9.5l4.2-11V35.5l-5.7,6.1
	l-0.7,9.3c-0.1,1.1-1.1,2-2.2,1.9c-1.1-0.1-2-1.1-1.9-2.2l0.8-9.9c0.1-0.5,0.3-1,0.6-1.4l7.6-8.2c0.4-0.4,0.9-0.7,1.5-0.6h13.4
	l9.8,0.6l2-7.6c0.3-1.1,1.3-1.7,2.4-1.5h0.1l0,0C68.7,22.2,69.4,23.3,69.1,24.4C69.1,24.3,69.1,24.4,69.1,24.4L69.1,24.4z"/>
</svg>
