<?xml version="1.0" encoding="utf-8"?>
<!-- Generator: Adobe Illustrator 19.2.0, SVG Export Plug-In . SVG Version: 6.00 Build 0)  -->
<svg version="1.1" id="Layer_1" xmlns="http://www.w3.org/2000/svg" xmlns:xlink="http://www.w3.org/1999/xlink" x="0px" y="0px"
	 viewBox="0 0 267 73.6" style="enable-background:new 0 0 267 73.6;" xml:space="preserve">
<style type="text/css">
	.st0{enable-background:new    ;}
	.st1{fill:#FF5C6E;}
</style>
<title>logo</title>
<g class="st0">
	<path class="st1" d="M81.3,32.6h-8.8v19.2c0,2.3,1,2.6,3.8,2.6h4.8c0.8,0,1.4,0.4,1.4,1.1v5c0,0.7-0.5,1.2-1.3,1.3
		c-1.9,0.3-5,0.6-7.7,0.6c-7.2,0-11.5-2.3-11.5-10.6V19.3c0-0.7,0.6-1.2,1.3-1.3l7.9-1.4c0.1,0,0.1,0,0.2,0c0.6,0,1.2,0.6,1.2,1.3
		v6.8h8.8c0.7,0,1.3,0.6,1.3,1.3v5.2C82.6,32,82.1,32.6,81.3,32.6z"/>
	<path class="st1" d="M101.3,33c-1.9,0-4.5,0.1-5.8,0.4v27c0,0.7-0.6,1.4-1.3,1.4h-7.8c-0.7,0-1.4-0.6-1.4-1.4V28.2
		c0-0.9,0.5-1.5,2-2.1c4.1-1.4,8.1-1.9,14.3-1.9c0.8,0,1.7,0.3,1.7,1.2v6.3C103.1,32.5,102.6,33,101.3,33z"/>
	<path class="st1" d="M135.4,46.5h-20.6v0.1c0,3.7,1.5,7,6.6,7c4.1,0,9.8-0.3,12.4-0.6c0.1,0,0.1,0,0.2,0c0.7,0,1.2,0.3,1.2,1V59
		c0,1-0.3,1.5-1.4,1.7c-4.1,1-7.6,1.5-13.2,1.5c-7.8,0-16.2-4.1-16.2-16.6v-4.5c0-10.4,6.1-17,16.3-17c10.6,0,15.9,7.2,15.9,17V45
		C136.8,45.9,136.2,46.5,135.4,46.5z M126.6,39.8c0-4.8-2.2-7.2-5.8-7.2c-3.5,0-5.9,2.5-5.9,7.2v0.3h11.7V39.8z"/>
	<path class="st1" d="M172.4,26.1l-12,16.3l11.9,17.9c0.1,0.1,0.1,0.3,0.1,0.5c0,0.5-0.3,0.8-0.8,0.8h-9.7c-0.7,0-1.1-0.1-1.6-0.9
		L151,45.7v14.7c0,0.7-0.6,1.4-1.3,1.4h-7.8c-0.7,0-1.4-0.6-1.4-1.4V13.6c0-0.7,0.6-1.3,1.4-1.3h7.8c0.7,0,1.3,0.6,1.3,1.3v27
		l9.8-14.8c0.5-0.8,1.2-1,1.7-1h9.2c0.6,0,1,0.3,1,0.7C172.7,25.7,172.6,25.9,172.4,26.1z"/>
	<path class="st1" d="M194.6,32.6h-8.8v27.8c0,0.7-0.6,1.4-1.4,1.4h-7.8c-0.7,0-1.4-0.6-1.4-1.4V22.2c0-8.9,6.1-10.9,12.6-10.9
		c2.2,0,5.2,0.3,7,0.6c0.7,0.1,1,0.4,1,0.8v5.4c0,0.7-0.3,1-0.9,1h-6.7c-2,0-2.5,1.2-2.5,3.1v2.6h8.8c0.7,0,1.3,0.6,1.3,1.3v5.2
		C195.9,32,195.3,32.6,194.6,32.6z"/>
	<path class="st1" d="M208.1,20.6h-8.4c-0.7,0-1.3-0.6-1.3-1.3v-6c0-0.7,0.6-1.3,1.3-1.3h8.4c0.7,0,1.3,0.6,1.3,1.3v6
		C209.4,20,208.8,20.6,208.1,20.6z M207.8,61.7H200c-0.7,0-1.3-0.6-1.3-1.3V26.1c0-0.7,0.6-1.3,1.3-1.3h7.9c0.7,0,1.3,0.6,1.3,1.3
		v34.4C209.1,61.2,208.5,61.7,207.8,61.7z"/>
	<path class="st1" d="M230.4,33c-1.9,0-4.5,0.1-5.8,0.4v27c0,0.7-0.6,1.4-1.3,1.4h-7.8c-0.7,0-1.4-0.6-1.4-1.4V28.2
		c0-0.9,0.5-1.5,2-2.1c4.1-1.4,8.1-1.9,14.3-1.9c0.8,0,1.7,0.3,1.7,1.2v6.3C232.1,32.5,231.6,33,230.4,33z"/>
	<path class="st1" d="M264.5,46.5h-20.6v0.1c0,3.7,1.5,7,6.6,7c4.1,0,9.8-0.3,12.4-0.6c0.1,0,0.1,0,0.2,0c0.7,0,1.2,0.3,1.2,1V59
		c0,1-0.3,1.5-1.4,1.7c-4.1,1-7.6,1.5-13.2,1.5c-7.8,0-16.2-4.1-16.2-16.6v-4.5c0-10.4,6.1-17,16.3-17c10.6,0,15.9,7.2,15.9,17V45
		C265.8,45.9,265.3,46.5,264.5,46.5z M255.6,39.8c0-4.8-2.2-7.2-5.8-7.2c-3.5,0-5.9,2.5-5.9,7.2v0.3h11.7V39.8z"/>
</g>
<path class="st1" d="M28.9,19.3c0,0,1.8,5.3-1.3,5c-1.5-0.1-2.3-1.6-2.4-3c0-1.8-0.2-3.6-0.4-5.3c-0.1-0.3-0.1-0.6-0.2-0.9
	c-0.6-3.4-2.1-6.6-4.3-9.3c0.3,4.1,0.3,8.1-1.6,11.8c-0.8,1.4-1.7,2.8-2.7,4c-1.3,1.5-2.3,3.2-3.1,5c-1.3,3.6-0.3,7.7,2.4,10.4
	c3.6,3.5,9.6,3.5,13.7,1c3.4-2,6.2-5.8,6.1-9.8S32.1,21.2,28.9,19.3z M26.2,33.5c-0.1,1.5-1.1,2.8-2.4,3.5c-1.4,0.4-2.9-0.2-3.5-1.4
	c-0.9-1.6-0.4-3.2,0.5-4.6c0.3-0.4,0.6-0.9,0.8-1.4c0.5-1.3,0.6-2.7,0.4-4c0.1,0.2,0.3,0.3,0.5,0.4c0.4,0.4,0.7,0.7,1,1.1
	c0.7,0.8,1.4,1.7,1.9,2.6c0.6,1.1,0.9,2.3,0.8,3.5C26.2,33.3,26.2,33.4,26.2,33.5z"/>
<path class="st1" d="M22.8,0C10.2,0,0,10.3,0,22.9c0,3.2,0.7,6.4,2,9.4l18.4,39.6c0.4,1.3,1.9,2.1,3.2,1.7c0.8-0.3,1.4-0.9,1.7-1.7
	l18.4-39.6c1.3-3,2-6.2,2-9.4C45.7,10.2,35.5,0,22.8,0z M42.2,22.9c0,10.6-8.7,19.3-19.3,19.3S3.5,33.5,3.5,22.9S12.2,3.6,22.9,3.6
	S42.2,12.2,42.2,22.9z"/>
</svg>
