<?xml version="1.0" encoding="utf-8"?>
<!-- Generator: Adobe Illustrator 19.2.0, SVG Export Plug-In . SVG Version: 6.00 Build 0)  -->
<svg version="1.1" id="Layer_1" xmlns="http://www.w3.org/2000/svg" xmlns:xlink="http://www.w3.org/1999/xlink" x="0px" y="0px"
	 viewBox="0 0 198.1 64.3" style="enable-background:new 0 0 198.1 64.3;" xml:space="preserve">
<style type="text/css">
	.st0{enable-background:new    ;}
	.st1{fill:#FF5C6E;}
</style>
<title>logo</title>
<g class="st0">
	<path class="st1" d="M17.8,24.2H9.7v17.6c0,2.1,1,2.4,3.5,2.4h4.5c0.8,0,1.2,0.4,1.2,1v4.6c0,0.7-0.4,1.1-1.2,1.2
		c-1.7,0.3-4.6,0.5-7.1,0.5C3.9,51.6,0,49.5,0,41.8V12c0-0.7,0.5-1.1,1.2-1.2l7.2-1.2c0.1,0,0.1,0,0.2,0c0.5,0,1.1,0.6,1.1,1.2V17
		h8.1c0.7,0,1.2,0.5,1.2,1.2V23C19,23.7,18.5,24.2,17.8,24.2z"/>
	<path class="st1" d="M36,24.6c-1.7,0-4.1,0.1-5.3,0.4v24.9c0,0.7-0.5,1.2-1.2,1.2h-7.2c-0.7,0-1.2-0.6-1.2-1.2V20.2
		c0-0.8,0.5-1.4,1.8-1.9c3.8-1.2,7.5-1.7,13.1-1.7c0.7,0,1.6,0.3,1.6,1.1v5.8C37.6,24.1,37.1,24.6,36,24.6z"/>
	<path class="st1" d="M48.5,13.2h-7.7c-0.7,0-1.2-0.5-1.2-1.2V6.5c0-0.7,0.5-1.2,1.2-1.2h7.7c0.7,0,1.2,0.5,1.2,1.2V12
		C49.7,12.6,49.1,13.2,48.5,13.2z M48.2,51.1H41c-0.7,0-1.2-0.5-1.2-1.2V18.2c0-0.7,0.5-1.2,1.2-1.2h7.2c0.7,0,1.2,0.5,1.2,1.2v31.7
		C49.4,50.5,48.9,51.1,48.2,51.1z"/>
	<path class="st1" d="M68.3,51.6c-1.2,0-3.1-0.2-4.9-0.4v10.3c0,0.7-0.5,1.2-1.2,1.2h-7.2c-0.7,0-1.2-0.5-1.2-1.2V19.8
		c0-1,0.2-1.4,1.8-1.7c3.4-0.8,8.1-1.5,12.7-1.5c9.6,0,14.9,5.6,14.9,15.2v4.6C83.2,45.7,78.4,51.6,68.3,51.6z M73.6,31.8
		c0-4.2-1.1-7.2-5.3-7.2c-2,0-3.7,0.1-4.9,0.3v18.5c1.4,0.2,3.4,0.4,4.9,0.4c4.2,0,5.3-3.1,5.3-7.3V31.8z"/>
	<path class="st1" d="M118.7,51.6c-3.3,0-6.2-0.4-9.2-2c-3,1.7-5.9,2-9.2,2c-7.4,0-13.8-3.9-13.8-15V18.2c0-0.7,0.6-1.2,1.2-1.2h7.1
		c0.7,0,1.2,0.5,1.2,1.2v18.4c0,5.5,2.1,6.4,5.2,6.4c1.2,0,2.3-0.1,3.4-0.4V18.3c0-0.7,0.5-1.2,1.2-1.2h7.3c0.7,0,1.2,0.6,1.2,1.2
		l-0.1,24.4c1.1,0.4,2.1,0.4,3.4,0.4c3.1,0,5.2-0.9,5.2-6.4V18.2c0-0.7,0.5-1.2,1.2-1.2h7.1c0.7,0,1.2,0.5,1.2,1.2v18.4
		C132.4,47.7,126.1,51.6,118.7,51.6z"/>
	<path class="st1" d="M145.5,13.2h-7.7c-0.7,0-1.2-0.5-1.2-1.2V6.5c0-0.7,0.5-1.2,1.2-1.2h7.7c0.7,0,1.2,0.5,1.2,1.2V12
		C146.7,12.6,146.2,13.2,145.5,13.2z M145.3,51.1H138c-0.7,0-1.2-0.5-1.2-1.2V18.2c0-0.7,0.5-1.2,1.2-1.2h7.2c0.7,0,1.2,0.5,1.2,1.2
		v31.7C146.5,50.5,145.9,51.1,145.3,51.1z"/>
	<path class="st1" d="M165.8,24.6c-1.7,0-4.1,0.1-5.3,0.4v24.9c0,0.7-0.5,1.2-1.2,1.2h-7.2c-0.7,0-1.2-0.6-1.2-1.2V20.2
		c0-0.8,0.5-1.4,1.8-1.9c3.8-1.2,7.5-1.7,13.1-1.7c0.7,0,1.6,0.3,1.6,1.1v5.8C167.4,24.1,167,24.6,165.8,24.6z"/>
	<path class="st1" d="M197,37.1h-19v0.1c0,3.4,1.4,6.5,6.1,6.5c3.7,0,9-0.3,11.4-0.5c0.1,0,0.1,0,0.2,0c0.7,0,1.1,0.3,1.1,1v4.5
		c0,1-0.2,1.4-1.2,1.6c-3.8,1-7,1.4-12.2,1.4c-7.2,0-14.9-3.8-14.9-15.3v-4.2c0-9.6,5.6-15.6,15-15.6c9.7,0,14.7,6.7,14.7,15.6v3.4
		C198.2,36.5,197.7,37.1,197,37.1z M188.8,30.9c0-4.4-2-6.6-5.3-6.6c-3.3,0-5.5,2.3-5.5,6.6v0.2h10.8V30.9z"/>
</g>
</svg>
