<svg id="Layer_1" data-name="Layer 1" xmlns="http://www.w3.org/2000/svg" viewBox="0 0 67.44 64.32"><defs><style>.cls-1{isolation:isolate;}.cls-2{fill:#ff5c6e;}</style></defs><title>logo-mobile</title><g class="cls-1"><path class="cls-2" d="M17.83,24.23H9.69V41.87c0,2.08,1,2.44,3.51,2.44h4.46a1,1,0,0,1,1.25,1V49.9a1.19,1.19,0,0,1-1.19,1.19,47.3,47.3,0,0,1-7.13.53C3.92,51.62,0,49.54,0,41.81V12A1.28,1.28,0,0,1,1.19,10.8L8.44,9.55H8.62a1.22,1.22,0,0,1,1.07,1.19V17h8.14A1.19,1.19,0,0,1,19,18.22V23A1.19,1.19,0,0,1,17.83,24.23Z"/><path class="cls-2" d="M53.66,51.62a17.74,17.74,0,0,1-9.21-2,17.74,17.74,0,0,1-9.21,2c-7.43,0-13.79-3.92-13.79-15V18.22A1.24,1.24,0,0,1,22.7,17h7.13A1.19,1.19,0,0,1,31,18.22V36.65c0,5.53,2.14,6.42,5.23,6.42a10.37,10.37,0,0,0,3.39-.42V18.28A1.25,1.25,0,0,1,40.82,17h7.31a1.25,1.25,0,0,1,1.19,1.25L49.26,42.65a10.38,10.38,0,0,0,3.39.42c3.09,0,5.23-.89,5.23-6.42V18.22A1.19,1.19,0,0,1,59.06,17H66.2a1.24,1.24,0,0,1,1.25,1.19V36.65C67.44,47.7,61.08,51.62,53.66,51.62Z"/></g></svg>