<?xml version="1.0" encoding="utf-8"?>
<!-- Generator: Adobe Illustrator 19.2.0, SVG Export Plug-In . SVG Version: 6.00 Build 0)  -->
<svg version="1.1" id="Layer_1" xmlns="http://www.w3.org/2000/svg" xmlns:xlink="http://www.w3.org/1999/xlink" x="0px" y="0px"
	 viewBox="0 0 105.9 105.9" style="enable-background:new 0 0 105.9 105.9;" xml:space="preserve">
<style type="text/css">
	.st0{fill:#525252;}
</style>
<title>Sun</title>
<circle class="st0" cx="53" cy="53" r="24.3"/>
<path class="st0" d="M102.9,56H87.4c-1.7,0-3-1.3-3-3s1.3-3,3-3H103c1.7,0,3,1.3,3,3C105.9,54.7,104.6,56,102.9,56z"/>
<path class="st0" d="M18.6,56H3c-1.7,0-3-1.3-3-3s1.3-3,3-3h15.6c1.7,0,3,1.3,3,3S20.2,56,18.6,56z"/>
<path class="st0" d="M53,105.9c-1.7,0-3-1.3-3-3V87.4c0-1.7,1.3-3,3-3s3,1.3,3,3V103C56,104.6,54.7,105.9,53,105.9z"/>
<path class="st0" d="M53,21.6c-1.7,0-3-1.3-3-3V3c0-1.7,1.3-3,3-3s3,1.3,3,3v15.6C56,20.2,54.7,21.6,53,21.6z"/>
<path class="st0" d="M17.6,91.3c-1.7,0-3-1.3-3-3c0-0.8,0.3-1.6,0.9-2.1l11-11c1.2-1.1,3.1-1.1,4.2,0.1c1.1,1.2,1.1,2.9,0,4.1
	l-11,11C19.2,91,18.4,91.3,17.6,91.3z"/>
<path class="st0" d="M77.3,31.6c-1.7,0-3-1.3-3-3c0-0.8,0.3-1.6,0.9-2.1l11-11c1.1-1.2,3-1.3,4.2-0.1s1.3,3,0.1,4.2
	c0,0.1-0.1,0.1-0.1,0.1l-11,11C78.8,31.3,78.1,31.6,77.3,31.6z"/>
<path class="st0" d="M28.6,31.6c-0.8,0-1.6-0.3-2.1-0.9l-11-11c-1.1-1.2-1.1-3.1,0.1-4.2c1.2-1.1,2.9-1.1,4.1,0l11,11
	c1.2,1.2,1.2,3.1,0,4.2C30.2,31.3,29.4,31.6,28.6,31.6z"/>
<path class="st0" d="M88.3,91.3c-0.8,0-1.6-0.3-2.1-0.9l-11-11c-1.2-1.1-1.3-3-0.1-4.2s3-1.3,4.2-0.1c0.1,0,0.1,0.1,0.1,0.1l11,11
	c1.2,1.2,1.2,3.1,0,4.2C89.9,91,89.1,91.3,88.3,91.3z"/>
</svg>
